<svg id="Layer_1" xmlns="http://www.w3.org/2000/svg" viewBox="0 0 374.4 139.3" height="67"><style>.st0{fill:#716966}.st1{fill:#00913a}</style><path class="st0" d="M301 121.2h-12.4v-9h-1.4v20.4h1.4v-10.1H301v10.1h1.4v-20.4H301zM311.6 120.5c-2.7 0-5.5 2.2-5.5 6.2 0 3.8 2.3 6.3 5.8 6.3 1.8 0 3.4-.5 4.3-1.4v-1.4l-.3.2c-.8.6-2.2 1.3-3.6 1.3-4.4 0-4.9-3.5-4.9-5.1v-.4h8.8v-.1c0-.2.1-.8.1-1.1.1-2.6-2-4.5-4.7-4.5zm3.4 4.6h-7.4c.6-2.1 2-3.4 4-3.4 1.9 0 3.3 1.3 3.4 3v.4zM329.9 120.9l-.1 2.1c-1-1.6-2.7-2.5-4.7-2.5-3.3 0-5.8 2.6-5.8 6.2s2.5 6.3 5.8 6.3c2 0 3.7-.9 4.7-2.5l.1 2.1h1.3v-11.7h-1.3zm-4.6 10.8c-2.7 0-4.5-2.1-4.5-5 0-3 1.8-5 4.5-5 2.3 0 4.5 1.5 4.5 5 0 3-1.8 5-4.5 5zM335.3 112.2h1.4v20.4h-1.4zM355.7 120.5c-1.8 0-3.5 1-4.5 2.5v-10.8h-1.4v20.4h1.4V126c0-1.9 1.9-4.2 4.2-4.2 2.2 0 3.1 1.2 3.1 4v6.8h1.4v-6.8c.1-3.6-1.3-5.3-4.2-5.3zM344.6 132.8c.9 0 1.4-.3 1.8-.6h.1v-1.3l-.3.2c-.3.2-.8.5-1.4.5-.8 0-1.2-.3-1.2-1.3v-8.2h2.5v-1.2h-2.5V117h-1.4v3.8h-2.5v1.2h2.5v8.3c0 1.6.8 2.5 2.3 2.5h.1zM72.6 111.8c-6 0-10.1 4.4-10.1 10.7 0 6.2 4.2 10.6 10.1 10.6 2.3 0 4.9-.8 6.5-1.9h.1v-1.6l-.2.2c-1.8 1.3-3.9 1.9-6.3 1.9-5.2 0-8.7-3.7-8.7-9.2 0-5.6 3.5-9.3 8.7-9.3 2.4 0 4.5.7 6.3 2l.2.2v-1.6h-.1c-1.6-1.2-4.2-2-6.5-2zM87.5 120.5c-2.7 0-5.5 2.2-5.5 6.2 0 3.8 2.3 6.3 5.8 6.3 1.8 0 3.4-.5 4.3-1.4v-1.4l-.3.2c-.8.6-2.2 1.3-3.6 1.3-4.4 0-4.9-3.5-4.9-5.1v-.4h8.8v-.1c0-.2.1-.8.1-1.1.1-2.6-1.9-4.5-4.7-4.5zm3.5 4.6h-7.3c.6-2.1 2-3.4 4-3.4 1.9 0 3.3 1.3 3.4 3v.4zM101.9 120.5c-1.8 0-3.6 1.1-4.5 2.6l-.1-2.2H96v11.7h1.4V126c0-1.9 1.9-4.2 4.2-4.2 2.2 0 3.1 1.2 3.1 4v6.8h1.4v-6.8c.1-3.6-1.3-5.3-4.2-5.3zM123.5 120.5c-2.7 0-5.5 2.2-5.5 6.2 0 3.8 2.3 6.3 5.8 6.3 1.8 0 3.4-.5 4.3-1.4v-1.4l-.3.2c-.8.6-2.2 1.3-3.6 1.3-4.4 0-4.9-3.5-4.9-5.1v-.4h8.8v-.1c0-.2.1-.8.1-1.1.1-2.6-1.9-4.5-4.7-4.5zm3.5 4.6h-7.3c.6-2.1 2-3.4 4-3.4 1.9 0 3.3 1.3 3.4 3v.4zM133.4 122.9l-.1-2.1H132v11.7h1.4v-6.9c0-2.1 2-3.9 4.2-3.7h.2v-1.5h-.2c-1.4.1-3.2.9-4.2 2.5zM172.8 111.8c-2.3 0-3.4 1.5-3.4 4.6v4.5H167v1.2h2.3v10.5h1.4v-10.5h3.1v-1.2h-3.1v-4.5c0-3.1.9-3.4 2.1-3.4.1 0 .3 0 .5.1h.5V112h-.1c-.3-.1-.7-.2-.9-.2zM181.4 120.4c-3.5 0-6.2 2.7-6.2 6.3 0 3.6 2.7 6.3 6.2 6.3s6.2-2.7 6.2-6.3c0-3.6-2.7-6.3-6.2-6.3zm0 11.4c-2.8 0-4.8-2.1-4.8-5s2-5 4.8-5 4.8 2.1 4.8 5c0 2.8-2 5-4.8 5zM192.3 122.9l-.1-2.1h-1.3v11.7h1.4v-6.9c0-2.1 2-3.9 4.2-3.7h.2v-1.5h-.2c-1.4.1-3.3.9-4.2 2.5zM215.5 112.2l-6.5 10.7-6.5-10.7h-1.7l7.5 12.2v8.2h1.4v-8.2l7.4-12.2zM220.8 120.4c-3.5 0-6.2 2.7-6.2 6.3 0 3.6 2.7 6.3 6.2 6.3s6.2-2.7 6.2-6.3c0-3.6-2.7-6.3-6.2-6.3zm0 11.4c-2.8 0-4.8-2.1-4.8-5s2-5 4.8-5 4.8 2.1 4.8 5c0 2.8-2.1 5-4.8 5zM240.2 120.9l-.1 2.1c-1-1.6-2.7-2.5-4.7-2.5-3.3 0-5.8 2.6-5.8 6.2s2.5 6.3 5.8 6.3c2 0 3.6-.9 4.6-2.4v2.1c0 4.6-2.9 5.2-4.6 5.2-1.9 0-3.6-.6-4.5-1.2l-.2-.1v1.4h.1c.9.6 2.9 1.3 4.6 1.3 2.3 0 6.1-.9 6.1-6.6v-11.8h-1.3zm-4.6 10.8c-2.7 0-4.5-2.1-4.5-5 0-3 1.8-5 4.5-5 2.3 0 4.5 1.5 4.5 5 0 3-1.8 5-4.5 5zM255.3 120.9l-.1 2.1c-1-1.6-2.7-2.5-4.7-2.5-3.3 0-5.8 2.6-5.8 6.2s2.5 6.3 5.8 6.3c2 0 3.7-.9 4.7-2.5l.1 2.1h1.3v-11.7h-1.3zm-4.6 10.8c-2.7 0-4.5-2.1-4.5-5 0-3 1.8-5 4.5-5 2.3 0 4.5 1.5 4.5 5 0 3-1.8 5-4.5 5zM276.6 128.7c.7-1.3 1.1-3 1.1-4.6v-.2h-1.4v.2c0 1.2-.2 2.4-.6 3.4l-4.4-6.1.7-.6c1.4-1.1 2.9-2.7 2.9-4.9 0-1.8-1.2-3.6-3.9-3.6-2.2 0-3.9 1.6-3.9 3.7 0 1.5.6 2.7 1.6 4l.8 1.1-1.1.8c-2.1 1.6-3.7 3-3.7 5.8 0 2.5 1.7 5.3 5.5 5.3 2.4 0 4.1-1 5.6-3l1.9 2.7h1.6l-2.7-4zm-8.2-12.6c0-1.6 1-2.6 2.6-2.6 1.5 0 2.5 1 2.5 2.4 0 1.6-.7 2.5-2.1 3.7l-.8.6-.8-1c-.7-.9-1.4-2.3-1.4-3.1zm2 15.6c-2.4 0-4.1-1.8-4.1-4.2 0-2 1.4-3.4 2.9-4.6l1.1-.9 4.8 6.7c-.7 1-2.2 3-4.7 3zM113.8 132.8c.9 0 1.4-.3 1.8-.6h.1v-1.3l-.3.2c-.3.2-.8.5-1.4.5-.8 0-1.2-.3-1.2-1.3v-8.2h2.5v-1.2h-2.5V117h-1.4v3.8h-2.5v1.2h2.5v8.3c0 1.6.8 2.5 2.3 2.5h.1z"/><g><path class="st1" d="M95.1 53.1l-.8-9.8H83.5v56.8h12.2v-33c0-9.5 10.8-15.7 21.7-13.7V41.1c-9.8 0-18.4 5.7-22.3 12zM179.8 41.1c-7.7 0-17.2 3.7-22 11.2l-.7-9h-10.8v89.3h12.2V92c5 7.2 14 10.3 21.3 10.3 15.2 0 27.7-12.7 27.7-30.5-.1-18.2-12.6-30.7-27.7-30.7zm-3 51.9c-8.3 0-19-6.3-19-21.3 0-14.8 10.7-21.2 19-21.2 9.3 0 18.5 7.2 18.5 21.2 0 13.9-9.2 21.3-18.5 21.3zM260.8 43.3l-.7 9c-4.8-7.5-14.7-11.2-22-11.2-15.2 0-27.7 12.7-27.7 30.5 0 18.2 12.5 30.7 27.7 30.7 7.7 0 17.2-3.7 22-11.2l.7 9h10.8V43.3h-10.8zM241 93c-9.2 0-18.3-7.2-18.3-21.2s9.2-21.3 18.3-21.3c8.5 0 19.2 6.3 19.2 21.3 0 14.8-10.7 21.2-19.2 21.2zM281.8 0H294v100.1h-12.2zM347.8 43.3v32.5c0 9.5-10.3 16.7-18.5 16.7-8.7 0-13.2-4.8-13.2-15.7V43.3H304v34.2c0 14.2 6 24.8 21.3 24.8 9.5 0 19.2-5.7 23-12l.8 9.8H360V43.3h-12.2zM124 43.3h12.2v56.8H124z"/><circle class="st1" cx="130.1" cy="30.3" r="7.1"/><path class="st1" d="M75.1 0H59.7L13.3 47.4V0H0v100.1h13.3V50.9l50.8 49.2h17.7L27.5 47.7z"/></g><g><path class="st1" d="M368.5 40.1c-3.3 0-6-2.7-6-6s2.7-6 6-6 6 2.7 6 6c-.1 3.3-2.8 6-6 6zm0-11.4c-3 0-5.4 2.4-5.4 5.4 0 3 2.4 5.4 5.4 5.4 2.9 0 5.4-2.4 5.4-5.4-.1-3-2.5-5.4-5.4-5.4zm1.9 9l-2-2.9h-1.2v2.9h-1v-7.2h2.6c1.6 0 2.3 1 2.3 2.2 0 1-.5 1.8-1.6 2.1l2.1 3h-1.2zm-3.2-6.4v2.6h1.4c1 0 1.4-.5 1.4-1.3s-.4-1.3-1.4-1.3h-1.4z"/></g></svg>